# xmcd
#
# Track frame offsets:
#	150
#	11033
#	23815
#	35425
#	47896
#	65848
#	79815
#	92933
#	104100
#	117169
#	130579
#	144725
#	158076
#	171258
#	183062
#	194662
#	207154
#	218190
#	236730
#	247650
#
# Disc length: 3471 seconds
#
# Revision: 1
# Processed by: cddbd v1.5.2PL0 Copyright (c) Steve Scherf et al.
# Submitted via: audiograbber 1.83.01
#
DISCID=200d8d14
DTITLE=Howlin' Wolf - Blues Greats
DYEAR=2011
DGENRE=Blues
TTITLE0=My People's Gone
TTITLE1=Back Door Man
TTITLE2=Down In The Bottom
TTITLE3=Moving
TTITLE4=I Ain't Gonna Be Your Dog No More
TTITLE5=Commit A Crime
TTITLE6=Evil (Is Going On)
TTITLE7=You'll Be Mine
TTITLE8=I Ain't Superstitious
TTITLE9=Joy To My Soul
TTITLE10=Smokestack Lightnin'
TTITLE11=Tail Dragger
TTITLE12=Moanin' At Midnight
TTITLE13=Oh! Red
TTITLE14=You Gonna Wreck My Life
TTITLE15=Spoonful
TTITLE16=Come To Me Baby
TTITLE17=I Want To Have A Word With You
TTITLE18=The Red Rooster
TTITLE19=Moanin' For My Baby
EXTD=
EXTT0=
EXTT1=
EXTT2=
EXTT3=
EXTT4=
EXTT5=
EXTT6=
EXTT7=
EXTT8=
EXTT9=
EXTT10=
EXTT11=
EXTT12=
EXTT13=
EXTT14=
EXTT15=
EXTT16=
EXTT17=
EXTT18=
EXTT19=
PLAYORDER=
